<?xml version="1.0" encoding="utf-8"?>
<!-- Generator: Adobe Illustrator 17.0.0, SVG Export Plug-In . SVG Version: 6.00 Build 0)  -->
<!DOCTYPE svg PUBLIC "-//W3C//DTD SVG 1.1//EN" "http://www.w3.org/Graphics/SVG/1.1/DTD/svg11.dtd">
<svg version="1.1" id="Layer_1" xmlns="http://www.w3.org/2000/svg" xmlns:xlink="http://www.w3.org/1999/xlink" x="0px" y="0px"
	 width="13px" height="13px" viewBox="0 0 13 13" enable-background="new 0 0 13 13" xml:space="preserve">
<g>
	<path fill-rule="evenodd" clip-rule="evenodd" fill="#77A4B3" d="M12.5,0h-12C0.116,0,0,0.206,0,0.598V9c0,0.379,0.103,0.5,0.5,0.5
		H4V13l4.5-3.5h4C12.898,9.5,13,9.379,13,9V0.598C13,0.22,12.898,0,12.5,0z M3.012,5.448c-0.483,0-0.875-0.387-0.875-0.864
		c0-0.477,0.392-0.864,0.875-0.864c0.483,0,0.875,0.387,0.875,0.864C3.887,5.061,3.496,5.448,3.012,5.448z M6.5,5.448
		c-0.483,0-0.875-0.387-0.875-0.864c0-0.477,0.392-0.864,0.875-0.864c0.483,0,0.875,0.387,0.875,0.864
		C7.375,5.061,6.983,5.448,6.5,5.448z M9.988,5.448c-0.483,0-0.875-0.387-0.875-0.864c0-0.477,0.392-0.864,0.875-0.864
		c0.483,0,0.875,0.387,0.875,0.864C10.863,5.061,10.471,5.448,9.988,5.448z"/>
</g>
</svg>
