<svg xmlns="http://www.w3.org/2000/svg" width="13" height="13" viewBox="0 0 13 13"><path fill="#77A4B3" d="M12.123 4.154c-.292-.304-.72-.458-1.277-.458H8.55c.335-.46.732-1.21.748-2.2.006-.394-.14-.76-.41-1.035A1.577 1.577 0 0 0 7.77 0C7.146 0 6.596.36 6.3.965c-.655 1.327-.93 1.736-2.11 3.125a5.62 5.62 0 0 0-.39.522c-.2-.166-.453-.27-.734-.27H1.58c-.64 0-1.158.52-1.158 1.158v5.502c0 .64.52 1.158 1.158 1.158h1.484c.255 0 .49-.085.68-.224C4.647 12.873 5.994 13 7 13a90.45 90.45 0 0 0 2.56-.025c2.45 0 2.945-5.793 2.994-6.475 0-.11.005-.23.01-.358.028-.616.064-1.462-.44-1.988zm-.15 1.963c-.006.137-.01.266-.01.36-.113 1.533-.795 5.905-2.412 5.905-.007 0-.77.025-2.552.025-1.39 0-2.3-.297-2.876-.938.063-.144.1-.3.1-.467V5.5c0-.124-.026-.242-.062-.354.143-.235.3-.462.48-.673C5.846 3.05 6.153 2.596 6.828 1.227c.198-.403.54-.634.94-.634a.98.98 0 0 1 .697.283c.16.162.242.373.238.61-.022 1.418-.997 2.272-1.006 2.28a.296.296 0 0 0 .193.522h2.956c.393 0 .67.09.85.276.33.344.3 1.014.277 1.553z"/></svg>